<svg id="Layer_2" data-name="Layer 2" xmlns="http://www.w3.org/2000/svg" width="18" height="24" viewBox="0 0 18 24">
  <g id="Layer_1" data-name="Layer 1" transform="translate(0)">
    <g id="Group_15495" data-name="Group 15495" transform="translate(0)">
      <circle id="Ellipse_48" data-name="Ellipse 48" cx="2" cy="2" r="2" transform="translate(6.851 7)" fill="#9c9c9c"/>
      <path id="Path_10326" data-name="Path 10326" d="M9,0A9.085,9.085,0,0,0,0,9.153C0,17.288,8.056,23.532,8.4,23.8a.987.987,0,0,0,1.2,0c.344-.264,8.4-6.508,8.4-14.644A9.085,9.085,0,0,0,9,0ZM9,13.017a3.865,3.865,0,1,1,3.8-3.864A3.833,3.833,0,0,1,9,13.017Z" transform="translate(0)" fill="#9c9c9c"/>
    </g>
  </g>
</svg>
