<svg xmlns="http://www.w3.org/2000/svg" width="18.023" height="18" viewBox="0 0 18.023 18">
  <path id="brightness-empty" d="M19.728,10.356,17.614,8.3V5.274a.9.9,0,0,0-.9-.9H13.738l-2.1-2.114a.9.9,0,0,0-1.277,0L8.3,4.374H5.274a.9.9,0,0,0-.9.9V8.3L2.26,10.356a.9.9,0,0,0,0,1.277l2.114,2.1v2.977a.9.9,0,0,0,.9.9H8.3l2.1,2.114a.9.9,0,0,0,1.277,0l2.1-2.114H16.76a.9.9,0,0,0,.9-.9V13.738l2.114-2.1a.9.9,0,0,0-.045-1.277ZM16.085,12.73a.9.9,0,0,0-.27.639v2.447H13.369a.9.9,0,0,0-.639.27l-1.736,1.736L9.258,16.085a.9.9,0,0,0-.639-.27H6.173V13.369a.9.9,0,0,0-.27-.639L4.167,10.994,5.9,9.258a.9.9,0,0,0,.27-.639V6.173H8.62a.9.9,0,0,0,.639-.27l1.736-1.736L12.73,5.9a.9.9,0,0,0,.639.27h2.447V8.62a.9.9,0,0,0,.27.639l1.736,1.736Z" transform="translate(-1.994 -1.994)" fill="#74b42c"/>
</svg>
