<svg xmlns="http://www.w3.org/2000/svg" width="24" height="18" viewBox="0 0 24 18">
  <g id="credit-card" transform="translate(0 -3)">
    <path id="Path_16" data-name="Path 16" d="M4,9A1,1,0,0,1,5,8H9a1,1,0,0,1,0,2H5A1,1,0,0,1,4,9Z" fill="#3cabe0"/>
    <path id="Path_17" data-name="Path 17" d="M4,3A4,4,0,0,0,0,7V17a4,4,0,0,0,4,4H20a4,4,0,0,0,4-4V7a4,4,0,0,0-4-4ZM20,5H4A2,2,0,0,0,2,7v7H22V7A2,2,0,0,0,20,5Zm2,11H2v1a2,2,0,0,0,2,2H20a2,2,0,0,0,2-2Z" fill="#3cabe0" fill-rule="evenodd"/>
  </g>
</svg>
