<svg id="Layer_2" data-name="Layer 2" xmlns="http://www.w3.org/2000/svg" width="24" height="20" viewBox="0 0 24 20">
  <g id="Layer_1" data-name="Layer 1">
    <path id="Path_10328" data-name="Path 10328" d="M19.729,0H4.271A4.2,4.2,0,0,0,0,4.118V15.882A4.2,4.2,0,0,0,4.271,20H19.729A4.2,4.2,0,0,0,24,15.882V4.118A4.2,4.2,0,0,0,19.729,0Zm1.314,6.788-7.3,3.957a3.718,3.718,0,0,1-3.49,0l-7.3-3.957a.966.966,0,0,1-.084-1.77,1.049,1.049,0,0,1,1.085.08L11.252,9.02a1.584,1.584,0,0,0,1.5,0L20.042,5.1a1.05,1.05,0,0,1,1.036-.013A.964.964,0,0,1,21.043,6.8Z" fill="#9c9c9c"/>
  </g>
</svg>
