<svg id="Layer_2" data-name="Layer 2" xmlns="http://www.w3.org/2000/svg" width="59" height="59" viewBox="0 0 59 59">
  <g id="Layer_1" data-name="Layer 1">
    <g id="Group_15347" data-name="Group 15347">
      <path id="Path_10295" data-name="Path 10295" d="M48.5,0h-38A10.51,10.51,0,0,0,0,10.5v38A10.51,10.51,0,0,0,10.5,59h38A10.51,10.51,0,0,0,59,48.5v-38A10.51,10.51,0,0,0,48.5,0Zm-38,5h38A5.51,5.51,0,0,1,54,10.5V32.36L43.85,22.21a2.57,2.57,0,0,0-3.54,0L27.44,35.08l-6.5-6.49a2.49,2.49,0,0,0-3.54,0L5,41V10.5A5.51,5.51,0,0,1,10.5,5Z" fill="#fff"/>
      <circle id="Ellipse_40" data-name="Ellipse 40" cx="4" cy="4" r="4" transform="translate(23.28 13.86)" fill="#fff"/>
    </g>
  </g>
</svg>
