<svg id="Layer_2" data-name="Layer 2" xmlns="http://www.w3.org/2000/svg" width="16" height="24" viewBox="0 0 16 24">
  <g id="Layer_1" data-name="Layer 1">
    <path id="Path_10327" data-name="Path 10327" d="M11.692,0H4.308A4.294,4.294,0,0,0,0,4.271V19.729A4.294,4.294,0,0,0,4.308,24h7.385A4.294,4.294,0,0,0,16,19.729V4.271A4.294,4.294,0,0,0,11.692,0ZM8.205,20.339h-.41a1.017,1.017,0,1,1,0-2.034h.41a1.017,1.017,0,1,1,0,2.034ZM9.641,6.1H6.359a1.017,1.017,0,1,1,0-2.034H9.641a1.017,1.017,0,1,1,0,2.034Z" fill="#9c9c9c"/>
  </g>
</svg>
