<svg xmlns="http://www.w3.org/2000/svg" width="18" height="17" viewBox="0 0 18 17">
  <g id="shopping-cart" transform="translate(-1 -2)">
    <path id="Path_1" data-name="Path 1" d="M5.006,2H1V3.709H3.691L6.005,14.544h.011v.276H16.884v-.212l1.834-8.257L19,5.419H5.728L5.251,3.187ZM16.873,7.128H6.093l1.278,5.983h8.174Z" transform="translate(0 0)" fill="#111" fill-rule="evenodd"/>
    <path id="Path_2" data-name="Path 2" d="M9.672,21.344A1.672,1.672,0,1,0,8,19.672,1.672,1.672,0,0,0,9.672,21.344ZM17.2,19.672A1.672,1.672,0,1,1,15.524,18,1.672,1.672,0,0,1,17.2,19.672Z" transform="translate(-1.148 -2.344)" fill="#111"/>
  </g>
</svg>
