<svg xmlns="http://www.w3.org/2000/svg" width="18" height="18" viewBox="0 0 18 18">
  <g id="smile" transform="translate(-2 -2)">
    <path id="Path_10298" data-name="Path 10298" d="M15.065,12.532H13.3a1.766,1.766,0,0,1-3.532,0H8a3.532,3.532,0,0,0,7.065,0Zm-5.3-2.649A.883.883,0,1,1,8.883,9,.883.883,0,0,1,9.766,9.883Zm4.415.883a.883.883,0,1,0-.883-.883A.883.883,0,0,0,14.182,10.766Z" transform="translate(-0.532 -0.621)" fill="#111"/>
    <path id="Path_10299" data-name="Path 10299" d="M20,11a9,9,0,1,1-9-9A9,9,0,0,1,20,11Zm-1.8,0A7.2,7.2,0,1,1,11,3.8,7.2,7.2,0,0,1,18.2,11Z" transform="translate(0 0)" fill="#111" fill-rule="evenodd"/>
  </g>
</svg>
