<svg xmlns="http://www.w3.org/2000/svg" width="22" height="19" viewBox="0 0 22 19">
  <path id="truck" d="M23,12.5v5a1,1,0,0,1-1,1H21a3,3,0,0,1-6,0H9a3,3,0,0,1-6,0H2a1,1,0,0,1-1-1V5.5a3,3,0,0,1,3-3h9a3,3,0,0,1,3,3v2h2a3,3,0,0,1,2.4,1.2l2.4,3.2a.61.61,0,0,1,.07.14l.06.11A1,1,0,0,1,23,12.5Zm-16,6a1,1,0,1,0-1,1A1,1,0,0,0,7,18.5Zm7-13a1,1,0,0,0-1-1H4a1,1,0,0,0-1,1v11h.78a3,3,0,0,1,4.44,0H14Zm2,6h4L18.8,9.9a1,1,0,0,0-.8-.4H16Zm3,7a1,1,0,1,0-1,1A1,1,0,0,0,19,18.5Zm2-5H16v2.78a3,3,0,0,1,4.22.22H21Z" transform="translate(-1 -2.5)" fill="#cc96d0"/>
</svg>
